<svg width="1030" height="1030" viewBox="0 0 1030 1030" fill="none" xmlns="http://www.w3.org/2000/svg">
<path d="M124.207 906.5L210.828 993.121L124.207 906.5ZM123.5 905.793L36.8794 819.172L123.5 905.793ZM507.222 522.071L593.842 608.692L593.842 608.692L507.222 522.071ZM522.071 507.222L435.45 420.601L522.071 507.222ZM906.293 123L992.913 209.621L906.293 123ZM907 123.707L820.379 37.0865L907 123.707ZM522.778 507.929L436.158 421.308L522.778 507.929ZM906.5 905.793L819.879 992.413L906.5 905.793ZM507.929 522.778L421.308 436.158L507.929 522.778ZM905.793 906.5L992.413 819.879L905.793 906.5ZM992.413 819.879L608.692 436.158L435.45 609.399L819.172 993.121L992.413 819.879ZM436.158 608.692L819.879 992.413L993.121 819.172L609.399 435.45L436.158 608.692ZM820.379 37.0865L436.158 421.308L609.399 594.55L993.621 210.328L820.379 37.0865ZM608.692 593.842L992.913 209.621L819.672 36.3794L435.45 420.601L608.692 593.842ZM37.0865 209.621L421.308 593.842L594.549 420.601L210.328 36.3794L37.0865 209.621ZM593.842 421.308L209.621 37.0865L36.3794 210.328L420.601 594.55L593.842 421.308ZM210.121 992.413L593.842 608.692L420.601 435.45L36.8794 819.172L210.121 992.413ZM421.308 436.158L37.5865 819.879L210.828 993.121L594.549 609.399L421.308 436.158ZM36.8765 993.118C84.9198 1041.16 162.801 1041.15 210.828 993.121L37.5865 819.879C85.2224 772.244 162.471 772.226 210.123 819.882L36.8765 993.118ZM36.8794 819.172C-11.154 867.206 -11.1553 945.083 36.8765 993.118L210.123 819.882C257.765 867.527 257.763 944.771 210.121 992.413L36.8794 819.172ZM420.601 594.55C376.667 550.616 376.667 479.385 420.601 435.45L593.842 608.692C645.587 556.947 645.587 473.053 593.842 421.308L420.601 594.55ZM36.3822 36.3765C-11.6595 84.4151 -11.6517 162.297 36.3794 210.328L209.621 37.0865C257.261 84.7271 257.269 161.975 209.618 209.623L36.3822 36.3765ZM210.328 36.3794C162.294 -11.654 84.4172 -11.6553 36.3822 36.3765L209.618 209.623C161.973 257.265 84.7294 257.263 37.0865 209.621L210.328 36.3794ZM435.45 420.601C479.384 376.667 550.615 376.667 594.549 420.601L421.308 593.842C473.053 645.587 556.947 645.587 608.692 593.842L435.45 420.601ZM993.618 36.3766C945.586 -11.6523 867.709 -11.6569 819.672 36.3794L992.913 209.621C945.268 257.266 868.024 257.262 820.382 209.623L993.618 36.3766ZM993.621 210.328C1041.66 162.292 1041.65 84.4106 993.618 36.3766L820.382 209.623C772.736 161.98 772.734 84.7316 820.379 37.0865L993.621 210.328ZM609.399 435.45C653.333 479.384 653.333 550.616 609.399 594.55L436.158 421.308C384.413 473.053 384.413 556.947 436.158 608.692L609.399 435.45ZM993.124 993.117C1041.16 945.078 1041.15 867.201 993.121 819.172L819.879 992.413C772.241 944.775 772.231 867.532 819.876 819.883L993.124 993.117ZM608.692 436.158C556.947 384.413 473.053 384.413 421.308 436.158L594.549 609.399C550.616 653.333 479.384 653.333 435.45 609.399L608.692 436.158ZM819.172 993.121C867.208 1041.16 945.09 1041.15 993.124 993.117L819.876 819.883C867.519 772.236 944.768 772.234 992.413 819.879L819.172 993.121Z" fill="#7289DA"/>
</svg>
