<svg width="1200" height="218" preserveAspectRatio="none" viewBox="0 0 1200 218" fill="none" 
    xmlns="http://www.w3.org/2000/svg">
    <path fill-rule="evenodd" clip-rule="evenodd" d="M1200 203.827L1150 174.709C1100 145.59 1000 87.3543 900 58.2362C800 29.1181 700 29.1181 600 67.9422C500 106.766 400 184.414 300 208.68C200 232.945 100 203.826 50 189.267L3.78466e-06 174.708L1.90582e-05 1.90419e-06L50 6.27533e-06C100 1.06465e-05 200 1.93887e-05 300 2.8131e-05C400 3.68733e-05 500 4.56156e-05 600 5.43579e-05C700 6.31001e-05 800 7.18424e-05 900 8.05847e-05C1000 8.9327e-05 1100 9.80692e-05 1150 0.00010244L1200 0.000106812L1200 203.827Z" fill="#36393f"/>
</svg>
